<svg width="38" height="42" viewBox="0 0 25 29" fill="none" xmlns="http://www.w3.org/2000/svg">
<path d="M1 8.14258H24V26.5711C24 27.1234 23.5523 27.5711 23 27.5711H2C1.44772 27.5711 1 27.1234 1 26.5711V8.14258Z" stroke="#fff" stroke-width="2"/>
<path fill-rule="evenodd" clip-rule="evenodd" d="M17.6431 7.14289C17.6431 7.14288 17.6431 7.14287 17.6431 7.14286C17.6431 4.30254 15.3406 2 12.5003 2C9.65996 2 7.35742 4.30254 7.35742 7.14286C7.35742 7.14287 7.35742 7.14288 7.35742 7.14289H5.35762V7.19715C5.35749 7.17907 5.35742 7.16097 5.35742 7.14286C5.35742 3.19797 8.55539 0 12.5003 0C16.4452 0 19.6431 3.19797 19.6431 7.14286C19.6431 7.14287 19.6431 7.14288 19.6431 7.14289H17.6431Z" fill="#fff"/>
</svg>
